<svg width="88" height="88" viewBox="0 0 88 88" fill="none" xmlns="http://www.w3.org/2000/svg">
<path d="M2 44C2 20.9046 20.9046 2 44 2C67.0954 2 86 20.9046 86 44C86 67.0954 67.0954 86 44 86C20.9046 86 2 67.0954 2 44Z" stroke="#0ABF53" stroke-width="4"/>
<path fill-rule="evenodd" clip-rule="evenodd" d="M59.6617 30.1399C60.1686 30.1399 60.6745 30.3329 61.0616 30.72C61.8348 31.4932 61.8348 32.7476 61.0616 33.5207L37.9599 56.6214C37.7669 56.8145 37.5135 56.9115 37.26 56.9115C37.0066 56.9115 36.7531 56.8145 36.5601 56.6214L26.7601 46.8214C25.9859 46.0472 25.9859 44.7949 26.7601 44.0207C27.1462 43.6346 27.6531 43.4405 28.1599 43.4405C28.6658 43.4405 29.1737 43.6346 29.5598 44.0207L37.26 51.7219L58.2619 30.72C58.649 30.3329 59.1549 30.1399 59.6617 30.1399Z" fill="#0ABF53"/>
</svg>
